<?xml version="1.0" encoding="utf-8"?>
<!-- Generator: Adobe Illustrator 21.0.0, SVG Export Plug-In . SVG Version: 6.00 Build 0)  -->
<svg version="1.1" id="Layer_1" xmlns="http://www.w3.org/2000/svg" xmlns:xlink="http://www.w3.org/1999/xlink" x="0px" y="0px"
	 viewBox="0 0 458.5 369.5" style="enable-background:new 0 0 458.5 369.5;" xml:space="preserve">
<style type="text/css">
	.st0{fill:#FD4155;}
	.st1{fill:url(#SVGID_1_);}
	.st2{fill:url(#SVGID_2_);}
	.st3{fill:#9488E6;}
	.st4{fill:#7E6DCF;}
	.st5{fill:#414042;}
	.st6{fill:#313032;}
	.st7{fill:#57415E;}
	.st8{fill:#7255CC;}
	.st9{fill:#46314C;}
	.st10{fill:#B3AEF5;}
	.st11{fill:#FDA87B;}
	.st12{fill:#B3AEF4;}
	.st13{fill:#FA9260;}
	.st14{fill:#FDC5A9;}
	.st15{fill:url(#SVGID_3_);}
	.st16{fill:url(#SVGID_4_);}
	.st17{fill:#753617;}
	.st18{fill:#935230;}
	.st19{fill:#3EC300;}
	.st20{fill:#2F9200;}
	.st21{fill:#8ADB66;}
	.st22{fill:#65CF33;}
	.st23{fill:#FDA87A;}
	.st24{fill:#FA925F;}
	.st25{fill:#D7F2CB;}
	.st26{fill:#DDECFA;}
	.st27{fill:#B1E698;}
	.st28{fill:#935331;}
	.st29{fill:url(#SVGID_5_);}
	.st30{fill:url(#SVGID_6_);}
	.st31{fill:#57425E;}
	.st32{fill:#46314D;}
	.st33{fill:#72A8FA;}
	.st34{fill:#548AEB;}
	.st35{fill:#CDD5F3;}
	.st36{fill:#3F7FDB;}
	.st37{fill:#5489EA;}
	.st38{fill:#56415E;}
	.st39{fill:#F6925E;}
	.st40{fill:url(#SVGID_7_);}
	.st41{fill:url(#SVGID_8_);}
	.st42{fill:#231F20;}
	.st43{font-family:'Rajdhani-SemiBold';}
	.st44{font-size:12px;}
	.st45{fill:url(#SVGID_9_);}
	.st46{fill:#FFFFFF;}
	.st47{fill:url(#SVGID_10_);}
	.st48{fill:url(#SVGID_11_);}
	.st49{fill:url(#SVGID_12_);}
	.st50{font-size:22.4795px;}
	.st51{fill:none;stroke:url(#SVGID_13_);stroke-width:2;stroke-miterlimit:10;}
	.st52{fill:url(#SVGID_14_);}
	.st53{fill:none;stroke:url(#SVGID_15_);stroke-width:2;stroke-miterlimit:10;}
	.st54{fill:url(#SVGID_16_);}
	.st55{fill:none;stroke:url(#SVGID_17_);stroke-width:2;stroke-miterlimit:10;}
	.st56{fill:url(#SVGID_18_);}
</style>
<path d="M332.2,160.4l4.7-6.8c-0.5,0.1-1.1,0.2-1.6,0.2c-1.5,0-2.7-0.5-3.7-1.4c-0.3-0.3-0.6-0.6-0.8-1c0,0.5,0.1,1,0.1,1.6
	c0,2.8-0.6,5-1.8,6.5c-1.3,1.6-3.1,2.4-5.5,2.4s-4.2-0.8-5.5-2.4c-1.2-1.5-1.8-3.7-1.8-6.5c0-2.8,0.6-5,1.8-6.5
	c1.3-1.6,3.1-2.4,5.5-2.4s4.2,0.8,5.5,2.4c0.5,0.6,0.9,1.3,1.2,2.1c0.1-1.1,0.6-2.1,1.4-3c0.9-0.9,2.2-1.4,3.7-1.4
	c1.5,0,2.7,0.5,3.7,1.4c0.8,0.8,1.3,1.9,1.4,3l3.6-5.2l3.4,2l-4.8,6.9c0.5-0.2,1.1-0.2,1.7-0.2c1.5,0,2.7,0.5,3.7,1.4
	c0.9,0.9,1.4,2.1,1.4,3.4c0,1.3-0.5,2.5-1.4,3.4c-0.9,0.9-2.2,1.4-3.7,1.4c-1.5,0-2.7-0.5-3.7-1.4c-0.9-0.9-1.3-1.9-1.4-3.1
	l-3.6,5.2L332.2,160.4z M344.2,156.2c-0.4,0-0.5,0.1-0.5,0.2c-0.1,0.1-0.2,0.3-0.2,0.6c0,0.3,0.1,0.5,0.2,0.6c0,0,0.1,0.2,0.5,0.2
	s0.5-0.1,0.5-0.2c0.1-0.1,0.2-0.2,0.2-0.6c0-0.3-0.1-0.5-0.2-0.6C344.7,156.3,344.6,156.2,344.2,156.2z M323.5,149
	c-0.5,0-1.9,0-1.9,4c0,1.9,0.3,2.8,0.6,3.3c0.3,0.5,0.7,0.7,1.3,0.7c0.5,0,1.9,0,1.9-4C325.4,149,324,149,323.5,149z M335.2,148.3
	c-0.4,0-0.5,0.1-0.5,0.2c-0.1,0.1-0.2,0.3-0.2,0.6c0,0.3,0.1,0.5,0.2,0.6c0,0,0.1,0.2,0.5,0.2s0.5-0.1,0.5-0.2
	c0.1-0.1,0.2-0.2,0.2-0.6c0-0.3-0.1-0.5-0.2-0.6C335.7,148.5,335.6,148.3,335.2,148.3z M309.7,161.6V152h-3.2v-4.8h1
	c1.7,0,2.2-0.3,2.3-0.4c0.3-0.3,0.4-0.9,0.4-1.3v-1h5.1v17.1H309.7z"/>
<path class="st0" d="M-911.3,685.9c-0.4,0.2-0.7,0.4-1.1,0.6C-912.3,685.9-911.9,685.8-911.3,685.9z"/>
<path class="st0" d="M-799.7,688.7c-0.3-0.2-0.5-0.4-0.8-0.6C-800.1,688.1-799.7,688.2-799.7,688.7z"/>
<g>
	<linearGradient id="SVGID_1_" gradientUnits="userSpaceOnUse" x1="162.9529" y1="62.5956" x2="283.0471" y2="62.5956">
		<stop  offset="2.924980e-03" style="stop-color:#FAD04F"/>
		<stop  offset="0.1157" style="stop-color:#E5A83F"/>
		<stop  offset="0.2371" style="stop-color:#FDD551"/>
		<stop  offset="0.3921" style="stop-color:#FDD551"/>
		<stop  offset="0.5077" style="stop-color:#F9F09F"/>
		<stop  offset="0.6101" style="stop-color:#FDD551"/>
		<stop  offset="0.7431" style="stop-color:#FDD551"/>
		<stop  offset="0.8835" style="stop-color:#E4A83E"/>
		<stop  offset="1" style="stop-color:#F9CF4E"/>
	</linearGradient>
	<circle class="st1" cx="223" cy="62.6" r="60"/>
	
		<linearGradient id="SVGID_2_" gradientUnits="userSpaceOnUse" x1="-676.9568" y1="-81.7474" x2="-556.2507" y2="-81.7474" gradientTransform="matrix(0.7071 0.7071 -0.7071 0.7071 601.2006 556.4045)">
		<stop  offset="2.924980e-03" style="stop-color:#FAD04F"/>
		<stop  offset="0.1157" style="stop-color:#E5A83F"/>
		<stop  offset="0.2371" style="stop-color:#FDD551"/>
		<stop  offset="0.3921" style="stop-color:#FDD551"/>
		<stop  offset="0.5077" style="stop-color:#F9F09F"/>
		<stop  offset="0.6101" style="stop-color:#FDD551"/>
		<stop  offset="0.7431" style="stop-color:#FDD551"/>
		<stop  offset="0.8835" style="stop-color:#E4A83E"/>
		<stop  offset="1" style="stop-color:#F9CF4E"/>
	</linearGradient>
	<path class="st2" d="M223,122.9c-16.1,0-31.3-6.3-42.7-17.7c-11.4-11.4-17.7-26.6-17.7-42.7c0-16.1,6.3-31.3,17.7-42.7
		C191.7,8.5,206.9,2.2,223,2.2c16.1,0,31.3,6.3,42.7,17.7c11.4,11.4,17.7,26.6,17.7,42.7c0,16.1-6.3,31.3-17.7,42.7l0,0
		C254.3,116.7,239.1,122.9,223,122.9z M223,2.9c-16,0-31,6.2-42.2,17.5c-11.3,11.3-17.5,26.3-17.5,42.2c0,16,6.2,31,17.5,42.2
		c11.3,11.3,26.3,17.5,42.2,17.5c16,0,31-6.2,42.2-17.5c11.3-11.3,17.5-26.3,17.5-42.2c0-16-6.2-31-17.5-42.2
		C254,9.1,239,2.9,223,2.9z"/>
	<path class="st3" d="M230.5,118c-1.1,0.2-2.3,0.1-3.4,0.5c-1.6,0-3.2,0-4.8,0c0-10.7,0-21.5,0-32.2c0-1.3,0.2-2.5,0.7-3.6
		c1-1.1,2.1-2,3.5-2.6c2.2,2.5,4.4,4.9,6.5,7.4c1.9,2.2,4.1,2,5.4-0.6c2.1-4.1,4.1-8.3,5.5-12.7c5.9,1.9,11.9,3.7,17.7,5.9
		c2,0.8,4,1.5,5.7,2.8c-0.9,0.4-1.6,1-2.3,1.6c-3.7,3.1-6.7,6.7-7.9,11.6c-0.9,3.8-0.5,7.6-0.5,11.4c-2.9,2.3-6.1,4.2-9.4,5.7
		c-0.4-0.4-0.2-0.9-0.3-1.3c0-3.6,0-7.2,0-10.9c0-2.1-1.2-3.2-3.2-3.2c-3.2,0-6.5,0-9.7,0c-2.4,0-3.3,0.9-3.3,3.3
		C230.5,106.7,230.5,112.4,230.5,118z"/>
	<path class="st4" d="M223,82.7c-0.5,1.2-0.7,2.4-0.7,3.6c0,10.7,0,21.5,0,32.2c-1.2,0-2.4,0-3.7,0c-1.4-0.5-2.9-0.4-4.3-0.7
		c-6.2-1-12-2.9-17.5-5.8c-0.2-0.1-0.4-0.3-0.6-0.4c0-5.7,0-11.4,0-17.1c0-1.2,0.3-2.3,0.8-3.4c1.7-3.5,4.9-5,8.5-5.9
		c1.1-0.3,0.9-0.7,0.6-1.4c-0.6-1.4-1.3-2.8-1.9-4.3c-0.7-1.8-1.8-3.5-1.9-5.6c-0.1-0.7,0.2-1.2,0.7-1.7c1.8-1.9,3.9-3.6,6.1-4.9
		c0.4-0.2,0.8-0.5,1.2,0c0,0.3,0,0.5,0.1,0.8c0.8,3.2,2.5,5.9,4.8,8.3c-1.4-0.1-2.8,0.4-4.1,0.9c-3.4,1.5-6.2,6.3-3.1,10.3
		c1.3,1.6,3.4,1.7,4.8,0.2c2.2-2.6,4.5-5.1,6.7-7.7C220.9,80.7,222,81.6,223,82.7z"/>
	<path class="st5" d="M170.3,81.7c-1.4-3.2-2.1-6.6-2.7-10c-0.6-3.4-0.8-6.9-0.7-10.3c0.2-11.4,3.7-21.8,10.2-31.2
		c2.2-3.2,4.7-6.2,7.7-8.7c2.3,2,4.7,3.9,6.5,6.4c2.7,3.6,4,7.6,2.6,12.1c-1.1,3.7-0.8,7.2,0.7,10.8c0.9,2.2,1.9,4.3,2.7,6.5
		c0.8,2.6,0.9,5-0.8,7.3c-2,2.6-4.8,4.2-7.7,5.5c-3.4,1.5-6.8,3-9.9,4.9C175.7,76.8,172.7,78.9,170.3,81.7z"/>
	<path class="st5" d="M261.2,21.5c3.3,2.8,6,6.2,8.5,9.8c4.7,7,7.7,14.8,8.9,23.1c1.3,9.2,0.4,18.2-2.7,27c0,0.1-0.1,0.2-0.2,0.3
		c-0.2-0.3-0.4-0.5-0.7-0.8c-4.5-4.5-9.9-7.5-15.7-10c-3.4-1.5-6.7-3-9.2-5.8c-1.5-1.7-2.1-3.6-1.8-5.9c0.5-2.7,1.6-5.1,2.7-7.6
		c1.4-3.2,2.2-6.6,1.5-10.1c-0.3-1.2-0.7-2.4-0.9-3.6c-0.5-4.6,1.3-8.4,4.4-11.7C257.7,24.6,259.4,22.9,261.2,21.5z"/>
	<path class="st6" d="M170.3,81.7c2.4-2.8,5.3-4.8,8.4-6.7c3.2-1.9,6.5-3.4,9.9-4.9c2.9-1.3,5.7-2.9,7.7-5.5
		c1.7-2.2,1.6-4.7,0.8-7.3c-0.7-2.2-1.8-4.4-2.7-6.5c-1.4-3.5-1.8-7.1-0.7-10.8c1.4-4.5,0.1-8.5-2.6-12.1c-1.8-2.5-4.2-4.4-6.5-6.4
		c3.6-3.5,7.7-6.3,12.1-8.6c3.6-1.9,7.3-3.5,11.3-4.4c-0.8,1.8-1.9,3.2-4,3.8c-2.1,0.6-3.6,2.3-4.8,4.2c-0.8,1.3-1,2.6-0.5,4.1
		c1.6,4.9,2.8,9.9,3.1,15.1c-2.1,0.2-3.2,1.9-2.6,4c0.5,1.9,1.5,3.7,1.9,5.7c0.5,2.3,1.3,2.9,3.7,3c0.2,3.1,1,6.1,2.2,9
		c1,2.2,2.4,4.1,3.8,6.1c0.1,1.3-0.3,2.6-0.5,3.9c-0.4-0.4-0.8-0.2-1.2,0c-2.3,1.4-4.3,3-6.1,4.9c-0.5,0.5-0.8,1-0.7,1.7
		c-4.6,1.5-9.2,3-13.7,4.5c-3.3,1.1-6.6,2.2-9.6,4.1c-0.1,0.1-0.3,0.1-0.4,0.2c-2.5,1.7-3.6,4.3-4.5,7.1
		C172.6,87.3,171.3,84.6,170.3,81.7z"/>
	<path class="st6" d="M261.2,21.5c-1.9,1.5-3.5,3.1-5.2,4.8c-3.1,3.3-4.9,7.1-4.4,11.7c0.1,1.2,0.6,2.4,0.9,3.6
		c0.7,3.5,0,6.8-1.5,10.1c-1.1,2.5-2.3,4.9-2.7,7.6c-0.4,2.3,0.2,4.2,1.8,5.9c2.5,2.8,5.8,4.3,9.2,5.8c5.8,2.5,11.2,5.5,15.7,10
		c0.2,0.2,0.4,0.5,0.7,0.8c-1,2.9-2.2,5.6-3.8,8.2c-0.9-2.8-1.9-5.5-4.6-7.1c-1.7-1.3-3.7-2.1-5.7-2.8c-5.8-2.2-11.7-4-17.7-5.9
		c-0.3-0.7-0.4-1.4-0.9-1.9c-1.8-1.9-3.8-3.5-6.1-4.9c-0.4-0.2-0.8-0.4-1.2,0c-0.3-1.3-0.5-2.6-0.5-4c0.2-0.3,0.4-0.6,0.7-0.9
		c3.2-4.2,5-8.9,5.4-14.1c1.6,0.2,3-0.4,3.4-2c0.6-2.3,1.6-4.5,2.2-6.8c0.5-2-0.5-3.5-2.5-3.8c0.3-5.3,1.2-10.5,3.8-15.3
		c0.4-0.8,0.3-1.7,0-2.5c-1-2.7-2.4-5.1-4.2-7.4c4.8,1.8,9.2,4.4,13.3,7.5C258.5,19,259.9,20.1,261.2,21.5z"/>
	<path class="st7" d="M243.7,10.4c1.8,2.3,3.2,4.7,4.2,7.4c0.3,0.9,0.4,1.7,0,2.5c-2.5,4.8-3.4,10-3.8,15.3c-0.7,0.1-1.4,0.1-2,0.5
		c-0.5-1-0.6-2.2-1.2-3.2c-0.9-1.3-1.1-2.8-1-4.4c0.1-2.3,0-4.5-0.9-6.6c-0.8-2.1-2.2-3.4-4.4-4c-2.8-0.7-5.6-0.3-8.3,0.5
		c-1.9,0.6-3.7,0.9-5.6,0.3c0-0.1,0-0.1,0-0.2c-0.1-0.2-0.2-0.4-0.3-0.6c-1.8-3-2.1-6.2-0.8-9.5c1-2.4,2.6-4.4,4.6-6
		c0.5-0.4,1-0.7,1.3-1.3c3.6-0.1,7.2,0.3,10.8,0.9c0.4,0.1,0.8,0.2,0.9,0.6c0.1,0.4-0.2,0.7-0.5,1c-1.4,1.3-1.4,1.3,0.4,1.9
		C239.7,6.7,241.8,8.4,243.7,10.4z"/>
	<path class="st8" d="M179,82.6c2.9-2,6.3-3,9.6-4.1c4.6-1.6,9.2-3,13.7-4.5c0.1,2,1.2,3.8,1.9,5.6c0.6,1.5,1.2,2.9,1.9,4.3
		c0.3,0.7,0.5,1.1-0.6,1.4c-3.5,0.9-6.8,2.4-8.5,5.9c-0.5,1.1-0.8,2.2-0.8,3.4c0,5.7,0,11.4,0,17.1c-2.4-1.2-4.6-2.6-6.7-4.2
		c0-3.1,0.2-6.1-0.2-9.2c-0.6-5-3.1-8.9-6.6-12.3C181.6,84.7,180.1,84,179,82.6z"/>
	<path class="st9" d="M225.5,1.4c-0.2,0.6-0.8,0.9-1.3,1.3c-2,1.6-3.6,3.6-4.6,6c-1.4,3.3-1,6.4,0.8,9.5c0.1,0.2,0.2,0.4,0.3,0.6
		c-1.9-0.4-3.8-1-5.8-1.1c-5.1-0.1-7.8,1.7-8.6,6.6c-0.3,1.6-0.2,3.3-0.2,4.9c0,0.8,0,1.7-0.4,2.5c-0.8,1.4-1.4,2.9-1.9,4.5
		c-0.6-0.3-1.2-0.4-1.8-0.5c-0.4-5.2-1.5-10.2-3.1-15.1c-0.5-1.5-0.3-2.8,0.5-4.1c1.2-1.9,2.7-3.5,4.8-4.2c2.1-0.6,3.2-2,4-3.8
		C212.6,2.8,218.8,1.5,225.5,1.4z"/>
	<path class="st10" d="M230.5,118c0-5.7,0-11.3,0-17c0-2.4,0.9-3.3,3.3-3.3c3.2,0,6.5,0,9.7,0c2.1,0,3.2,1.1,3.2,3.2
		c0,3.6,0,7.2,0,10.9c0,0.4-0.2,0.9,0.3,1.3c-4,2-8.3,3.4-12.7,4.3C233.1,117.7,231.8,117.8,230.5,118z"/>
	<path class="st4" d="M179,82.6c1,1.3,2.5,2.1,3.7,3.3c3.5,3.4,6,7.3,6.6,12.3c0.4,3.1,0.1,6.1,0.2,9.2c-4.4-3.2-8.2-7-11.4-11.4
		c-1.5-1.9-2.8-4-4-6.1c0.9-2.7,2-5.4,4.5-7.1C178.8,82.8,178.9,82.7,179,82.6z"/>
	<path class="st10" d="M267.2,82.8c2.7,1.6,3.7,4.3,4.6,7.1c-1.4,2.7-3.1,5.2-5,7.6c-2.8,3.6-6.1,6.8-9.7,9.6
		c-0.2,0.1-0.4,0.2-0.6,0.4c0-3.8-0.4-7.6,0.5-11.4c1.2-4.8,4.1-8.5,7.9-11.6C265.6,83.8,266.3,83.2,267.2,82.8z"/>
	<path class="st11" d="M203.8,36.1c0.5-1.5,1.1-3,1.9-4.5c0.4-0.7,0.4-1.6,0.4-2.5c0-1.6-0.1-3.3,0.2-4.9c0.9-4.9,3.6-6.8,8.6-6.6
		c2,0,3.9,0.7,5.8,1.1c0,0.1,0,0.1,0,0.2c-0.7,1-1.6,1.8-2.1,2.9c-0.8,2.1-1,4.2-0.9,6.4c0.1,1.8-0.3,3.4-1.2,5
		c-0.8,1.4-1.2,3-1.1,4.7c0.1,2.8,0.7,5.6,1,8.5c0.2,1.9,0.1,3.8,0.6,5.6c1.5,6.4,4.8,11.6,10.2,15.4c1.4,1,1.8,0.9,3.3,0
		c1.8-1.1,3-2.7,4.6-4.1c0,1.3,0.2,2.7,0.5,4c-1,4.8-3.6,8.6-7.7,11.2c-0.6,0.4-1.1,0.9-1.4,1.6c-1.4,0.6-2.4,1.6-3.5,2.6
		c-1-1.1-2.1-2-3.5-2.6c-0.3-1.2-1.6-1.4-2.3-2.2c0.2-0.1,0.5-0.1,0.6-0.3c2.1-1.8,3.6-3.9,4.3-6.7c0.2-1-0.1-1.2-0.9-1.3
		c-2.5-0.3-4.6-1.3-6.6-2.8c-1.4-1-2.3-2.4-3.7-3.4c-1.3-2-2.8-3.9-3.8-6.1c-1.3-2.9-2-5.9-2.2-9c0.1-1.2-0.1-2.3-0.3-3.5
		C204.2,41.9,203.6,39.1,203.8,36.1z"/>
	<path class="st12" d="M226.4,80.1c0.3-0.7,0.8-1.1,1.4-1.6c4.1-2.6,6.7-6.4,7.7-11.2c0.4-0.4,0.8-0.2,1.2,0c2.3,1.3,4.3,3,6.1,4.9
		c0.5,0.6,0.7,1.3,0.9,1.9c-1.4,4.4-3.3,8.6-5.5,12.7c-1.3,2.6-3.5,2.8-5.4,0.6C230.8,85,228.6,82.5,226.4,80.1z"/>
	<path class="st3" d="M217.2,77.8c0.7,0.8,2,1,2.3,2.2c-2.2,2.6-4.5,5.1-6.7,7.7c-1.3,1.6-3.5,1.5-4.8-0.2c-3.1-4-0.3-8.7,3.1-10.3
		c1.3-0.6,2.6-1,4.1-0.9C215.9,76.8,216.4,77.5,217.2,77.8z"/>
	<path class="st13" d="M217.2,77.8c-0.8-0.3-1.3-1-1.9-1.4c-2.3-2.4-3.9-5.1-4.8-8.3c-0.1-0.3-0.1-0.5-0.1-0.8
		c0.2-1.3,0.6-2.6,0.5-3.9c1.3,1,2.3,2.4,3.7,3.4c2,1.5,4.2,2.5,6.6,2.8c0.8,0.1,1.2,0.3,0.9,1.3c-0.7,2.8-2.2,4.9-4.3,6.7
		C217.6,77.7,217.4,77.7,217.2,77.8z"/>
	<path class="st13" d="M203.8,36.1c-0.2,2.9,0.5,5.8,0.8,8.7c0.2,1.2,0.4,2.3,0.3,3.5c-2.3,0-3.2-0.7-3.7-3c-0.4-2-1.4-3.8-1.9-5.7
		c-0.6-2.1,0.6-3.8,2.6-4C202.6,35.7,203.2,35.8,203.8,36.1z"/>
	<path class="st14" d="M235.1,63.4c-1.5,1.3-2.8,3-4.6,4.1c-1.5,0.9-1.9,1-3.3,0c-5.3-3.9-8.7-9-10.2-15.4c-0.4-1.9-0.4-3.8-0.6-5.6
		c-0.3-2.8-0.9-5.6-1-8.5c0-1.7,0.3-3.3,1.1-4.7c0.9-1.6,1.3-3.2,1.2-5c-0.1-2.2,0-4.3,0.9-6.4c0.5-1.2,1.4-1.9,2.1-2.9
		c1.9,0.5,3.8,0.2,5.6-0.3c2.7-0.8,5.5-1.2,8.3-0.5c2.2,0.6,3.6,1.9,4.4,4c0.8,2.1,1,4.4,0.9,6.6c-0.1,1.6,0.2,3,1,4.4
		c0.6,1,0.7,2.1,1.2,3.2c0,1.9-0.1,3.7-0.4,5.5c-0.3,2.2-0.8,4.4-0.7,6.6c-0.4,5.3-2.1,10-5.4,14.1C235.5,62.7,235.3,63,235.1,63.4z
		"/>
	<path class="st11" d="M241.1,48.3c-0.1-2.2,0.4-4.4,0.7-6.6c0.3-1.8,0.4-3.7,0.4-5.5c0.6-0.4,1.3-0.4,2-0.5c2,0.3,2.9,1.8,2.5,3.8
		c-0.6,2.3-1.6,4.5-2.2,6.8C244.1,47.9,242.7,48.4,241.1,48.3z"/>
</g>
<circle cx="222.2" cy="127.8" r="22.7"/>
<linearGradient id="SVGID_3_" gradientUnits="userSpaceOnUse" x1="203.2718" y1="127.8461" x2="241.0892" y2="127.8461">
	<stop  offset="2.924980e-03" style="stop-color:#FAD04F"/>
	<stop  offset="0.1157" style="stop-color:#E5A83F"/>
	<stop  offset="0.2371" style="stop-color:#FDD551"/>
	<stop  offset="0.3921" style="stop-color:#FDD551"/>
	<stop  offset="0.5077" style="stop-color:#F9F09F"/>
	<stop  offset="0.6101" style="stop-color:#FDD551"/>
	<stop  offset="0.7431" style="stop-color:#FDD551"/>
	<stop  offset="0.8835" style="stop-color:#E4A83E"/>
	<stop  offset="1" style="stop-color:#F9CF4E"/>
</linearGradient>
<circle class="st15" cx="222.2" cy="127.8" r="18.9"/>
<g>
	<linearGradient id="SVGID_4_" gradientUnits="userSpaceOnUse" x1="6.797" y1="269.4359" x2="126.8913" y2="269.4359">
		<stop  offset="2.924980e-03" style="stop-color:#FAD04F"/>
		<stop  offset="0.1157" style="stop-color:#E5A83F"/>
		<stop  offset="0.2371" style="stop-color:#FDD551"/>
		<stop  offset="0.3921" style="stop-color:#FDD551"/>
		<stop  offset="0.5077" style="stop-color:#F9F09F"/>
		<stop  offset="0.6101" style="stop-color:#FDD551"/>
		<stop  offset="0.7431" style="stop-color:#FDD551"/>
		<stop  offset="0.8835" style="stop-color:#E4A83E"/>
		<stop  offset="1" style="stop-color:#F9CF4E"/>
	</linearGradient>
	<circle class="st16" cx="66.8" cy="269.4" r="60"/>
	<path class="st17" d="M51,215.7c2.2-1.8,4.6-2.8,7.3-3.7c0.5-0.2,1-0.3,1.5-0.6c0.7-0.3,0.9-0.8,0.5-1.5c-0.5-0.7-0.3-1.2,0.4-1.6
		c1.9,0,3.8,0,5.7,0c2,0.8,3,2.6,3.9,4.5c0.8,1.7,0.4,3.2-1,4.5c-1,0.9-2,1.8-2.6,3.1c-0.5,1.3-0.2,2.6-0.3,3.9
		c-0.1,0-0.1,0.1-0.2,0.1c-2.7,0.1-5.4,0.5-8.1,1.3c-5.8,1.8-8.3,5.1-8.2,11.1c0,0.8,0,1.6-0.4,2.3c-0.8,1.4-1.4,2.9-1.9,4.5
		c-0.9-0.4-1.8-0.4-2.8-0.4c-1-4-1.2-8.1-0.8-12.2c0.3-4,1.4-7.7,3.5-11.2c0.9-1.5,2.2-2.6,3.2-4c0,0,0,0,0,0
		C50.8,215.9,50.9,215.8,51,215.7z"/>
	<path class="st18" d="M66.4,224.4c0.1-1.3-0.2-2.6,0.3-3.9c0.5-1.3,1.5-2.3,2.6-3.1c1.5-1.3,1.8-2.8,1-4.5
		c-0.9-1.9-1.8-3.6-3.9-4.5c0.6,0,1.2,0,1.8,0c0.9,0.4,1.9,0.4,2.8,0.6c5.4,1,10.2,3.3,13.9,7.5c0.1,0.1,0.2,0.1,0.2,0.2
		c0,0,0,0,0,0c0.2,0.3,0.3,0.5,0.5,0.8c3.2,4.4,4.4,9.3,4.6,14.6c0.1,3.9-0.5,7.6-1.2,11.4c-1.1-0.1-2.1,0.1-3.2,0.2
		c-0.2-1.2-0.6-2.3-1.2-3.3c-0.7-1.1-0.9-2.3-0.9-3.6c0.1-1.2,0.2-2.4-0.1-3.6c-1-4.2-4.1-6.3-8-7.5
		C72.6,224.7,69.5,224.6,66.4,224.4z"/>
	<path class="st19" d="M102.1,313.1c-7.4,6.1-15.8,9.9-25.2,11.6c-8,1.5-16,1.1-23.9-0.8c-0.1,0-0.1-0.1-0.2-0.1
		c0.3-0.4-0.1-0.6-0.2-0.9c-0.4-1-0.6-2-0.7-3.1c-0.2-2.5,0.7-4.5,2.1-6.4c1.7-0.3,2.1-0.7,2.1-2.5c0.1-4.3-0.1-8.5,0.1-12.8
		c2.7,0,5.4,0,8,0c1.7,0,3.4,0,5.1,0c2.7,0,5.3,0,8,0c0,3.9,0,7.8,0,11.7c0,0.5,0,1.1,0,1.6c0.1,1.2,0.9,1.9,2,1.9
		c1.1,0,1.8-0.8,1.9-2c0-0.6,0-1.2,0-1.8c0-4.2,0-8.5,0.1-12.7c0.4,0,0.8-0.3,1.2-0.4c2-0.9,3.7-2.2,5.6-3.3
		c3.2,2.3,6.3,4.8,8.9,7.8C100,304.4,102.2,308.2,102.1,313.1z"/>
	<path class="st5" d="M102.4,226.2c2.3,1.6,4.3,3.7,6.2,5.8c5.5,6.1,9.5,13.1,11.9,20.9c2.1,6.6,2.8,13.4,2.4,20.2
		c-0.2,3.4-0.7,6.8-1.6,10.1c0,0.2-0.2,0.3-0.3,0.5c-0.5-0.1-0.8-0.5-1.1-0.8c-4-4-8.7-6.9-13.8-9.1c-3.2-1.4-6.3-3.1-8.7-5.8
		c-1.9-2.1-2.7-4.7-2.6-7.4c0.1-3.7,1.2-7.3,1.6-11c0.4-3.1,0.6-6.3,0-9.4c-0.7-3.6-0.2-6.9,1.8-9.9
		C99.4,228.6,100.9,227.4,102.4,226.2z"/>
	<path class="st5" d="M12.6,283.7c-0.8-2.1-1.1-4.2-1.4-6.4c-0.5-3.1-0.6-6.1-0.5-9.2c0.3-11.6,3.9-22,10.6-31.5
		c2.7-3.8,5.9-7.2,9.5-10.2c0.1-0.1,0.3-0.2,0.5-0.3c1,0.8,2,1.6,2.9,2.6c2.6,2.9,3.7,6.2,3.2,10.1c-0.5,3.5-0.7,7-0.2,10.6
		c0.5,3.5,1.4,7,1.6,10.5c0.2,2.6-0.3,5-1.8,7.1c-2.4,3.3-5.9,5.2-9.5,6.8c-4.2,1.9-8.1,4.2-11.6,7.2
		C14.7,281.9,13.9,283.1,12.6,283.7z"/>
	<path class="st6" d="M12.6,283.7c1.3-0.6,2.1-1.8,3.2-2.7c3.5-3,7.4-5.3,11.6-7.2c3.6-1.6,7.1-3.5,9.5-6.8c1.5-2.1,2-4.5,1.8-7.1
		c-0.2-3.6-1.2-7-1.6-10.5c-0.5-3.5-0.3-7,0.2-10.6c0.6-3.9-0.6-7.2-3.2-10.1c-0.9-1-1.9-1.7-2.9-2.6c5.5-4.7,11.8-8,18.7-10.2
		c0.2-0.1,0.4,0,0.7-0.1c-1,1.4-2.3,2.5-3.2,4c-2.1,3.5-3.2,7.2-3.5,11.2c-0.3,4.1-0.2,8.2,0.8,12.2c-1.6,0.9-2.1,2-1.7,3.8
		c0.4,2,1.5,3.7,1.9,5.7c0.4,2.3,1.4,3,3.7,3.1c0,0.4,0,0.8,0,1.1c0,0.5,0,0.9,0.1,1.4c0.4,3.3,1.5,6.4,3.1,9.4
		c-2.2,0.8-4.4,1.7-6.5,2.8c-3,1.6-5.1,3.8-5.8,7.2c-0.5,2.2-0.3,4.3,0,6.5c-1.3,0.5-2.6,0.9-3.9,1.4c-3,1.1-6.1,2.2-9.1,3.3
		c-3.9,1.4-6.7,4-8.8,7.6C15.4,292.6,13.7,288.3,12.6,283.7z"/>
	<path class="st6" d="M102.4,226.2c-1.5,1.2-3,2.4-4.1,4.1c-2,3-2.5,6.4-1.8,9.9c0.6,3.1,0.4,6.3,0,9.4c-0.5,3.7-1.5,7.3-1.6,11
		c-0.1,2.7,0.7,5.3,2.6,7.4c2.4,2.6,5.5,4.4,8.7,5.8c5.1,2.3,9.8,5.2,13.8,9.1c0.3,0.3,0.6,0.7,1.1,0.8c-1.1,4.6-2.8,8.9-5.2,12.9
		c-2.1-3.6-5-6.2-9-7.7c-4.3-1.5-8.5-3.1-12.8-4.6c0.1-1.4,0.4-2.7,0.3-4.1c-0.3-3.7-1.5-6.8-4.8-8.8c-2.4-1.5-5.1-2.6-7.8-3.6
		c0.1-0.2,0.2-0.4,0.3-0.6c1.6-3.2,2.7-6.5,2.9-10.1c0-0.4,0-0.7,0.1-1.1c1.7,0.1,3-0.6,3.4-2.2c0.5-2.2,1.5-4.2,2.1-6.4
		c0.5-1.7,0-3.1-1.4-4.1c0.7-3.8,1.3-7.5,1.2-11.4c-0.2-5.3-1.4-10.3-4.6-14.6c-0.2-0.2-0.3-0.5-0.5-0.8c2.7,0.7,5.2,1.9,7.6,3.2
		C96.2,221.6,99.5,223.7,102.4,226.2z"/>
	<path class="st20" d="M54,313.4c-1.3,1.9-2.3,4-2.1,6.4c0.1,1.1,0.3,2.1,0.7,3.1c0.1,0.3,0.5,0.5,0.2,0.9c-7.9-2-15-5.6-21.3-10.7
		c0-1.3,0.1-2.5,0.4-3.7c1.2-4.8,4.3-8.4,7.9-11.7c1.8-1.6,3.6-3.1,5.5-4.6c0.1,0,0.2,0,0.3,0c2.1,1.4,4.2,2.8,6.6,3.7
		c0,0.5,0.1,0.9,0.1,1.4c0,4.2,0,8.5,0,12.7C52.2,312.3,52.6,312.8,54,313.4z"/>
	<path class="st21" d="M94,284.4c4.3,1.5,8.5,3.1,12.8,4.6c4,1.4,6.9,4,9,7.7c-2.9,5.4-6.7,10.1-11.2,14.3c-0.8,0.7-1.5,1.6-2.5,2.1
		c0.1-4.8-2.1-8.7-5.1-12.2c-2.6-3-5.6-5.5-8.9-7.8c2-1.7,3.8-3.6,4.9-6.1C93.4,286.1,93.7,285.3,94,284.4z"/>
	<path class="st22" d="M45.3,293.1c-1.8,1.5-3.7,3-5.5,4.6c-3.6,3.2-6.7,6.8-7.9,11.7c-0.3,1.2-0.4,2.5-0.4,3.7
		c-3.7-2.8-6.8-6.2-9.6-9.9c-1.6-2.1-3-4.2-4.2-6.5c2.1-3.5,4.9-6.2,8.8-7.6c3-1.1,6.1-2.2,9.1-3.3c1.3-0.5,2.6-0.9,3.9-1.4
		c0.8,1.9,1.4,3.8,2.7,5.4C43.3,291,44.3,292,45.3,293.1z"/>
	<path class="st14" d="M84.9,256c0,0.4,0,0.7-0.1,1.1c-1,1.9-2.3,3.5-4.1,4.6c-0.8,0.5-1.1,0.4-1.3-0.5c-0.9-3.1-2.8-5.3-6.1-6.1
		c-1.3-0.3-2.5-0.7-3.7-1.1c-0.8-0.3-1.6-0.3-2.2,0.5c-0.2,0.3-0.4,0.4-0.7,0c-0.6-0.8-1.4-0.7-2.3-0.5c-1.3,0.4-2.6,0.9-4.1,1.1
		c0.1-2.7-0.5-5.4-0.9-8.1c-0.4-2.9-0.4-5.7,1-8.3c0.7-1.3,1.1-2.6,1-4.1c0-0.5,0-1,0-1.5c0-2.7,0.9-5,2.8-6.8
		c0.6-0.6,1.4-1,1.8-1.7c0.1,0,0.1-0.1,0.2-0.1c3.1,0.2,6.2,0.2,9.3,1.1c3.9,1.2,7,3.3,8,7.5c0.3,1.2,0.2,2.4,0.1,3.6
		c-0.1,1.3,0.2,2.5,0.9,3.6c0.6,1,1,2.1,1.2,3.3c0.5,1.8,0.1,3.5-0.1,5.3C85.5,251.3,84.8,253.6,84.9,256z"/>
	<path class="st23" d="M66.2,224.5c-0.4,0.8-1.2,1.1-1.8,1.7c-1.9,1.9-2.8,4.2-2.8,6.8c0,0.5,0,1,0,1.5c0.1,1.5-0.3,2.8-1,4.1
		c-1.4,2.6-1.5,5.4-1,8.3c0.4,2.7,1,5.4,0.9,8.1c-0.1,0.1-0.1,0.1-0.2,0.2c-3.2,0.9-4.7,3.3-5.6,6.2c-0.2,0.9-0.5,0.9-1.2,0.5
		c-2.1-1.1-3.5-2.8-4.7-4.9c0-0.4,0-0.8,0-1.1c0-0.6,0-1.3-0.1-1.9c-0.4-3.4-1.3-6.8-1-10.4c0.5-1.6,1.1-3.1,1.9-4.5
		c0.4-0.7,0.4-1.5,0.4-2.3c-0.1-6,2.4-9.4,8.2-11.1C60.7,225,63.4,224.6,66.2,224.5z"/>
	<path class="st24" d="M47.6,243.7c-0.2,3.5,0.6,6.9,1,10.4c0.1,0.6,0.1,1.3,0.1,1.9c-2.2-0.1-3.3-0.8-3.7-3.1
		c-0.4-2-1.5-3.8-1.9-5.7c-0.4-1.8,0.1-2.9,1.7-3.8C45.8,243.3,46.7,243.3,47.6,243.7z"/>
	<path class="st23" d="M84.9,256c-0.1-2.4,0.5-4.7,0.8-7.1c0.2-1.8,0.6-3.5,0.1-5.3c1-0.2,2.1-0.3,3.2-0.2c1.5,1,1.9,2.4,1.4,4.1
		c-0.6,2.1-1.6,4.2-2.1,6.4C88,255.4,86.6,256.1,84.9,256z"/>
	<path class="st25" d="M94,284.4c-0.4,0.9-0.7,1.8-1.1,2.6c-1,2.5-2.9,4.3-4.9,6.1c-1.8,1.1-3.6,2.4-5.6,3.3
		c-0.4,0.2-0.7,0.4-1.2,0.4c0-0.5-0.1-0.9-0.1-1.4c0-1.2-0.8-2-1.8-2.1c-1.1,0-2,0.9-2,2c0,0.9,0,1.8,0,2.7c-2.7,0-5.3,0-8,0
		c3-2.3,5.5-5,7.1-8.4c2.6-5.7,3-11.6,2-17.7c1.2-1.3,2.2-2.7,3.2-4.2c2.7,0.9,5.3,2.1,7.8,3.6c3.3,2,4.6,5.2,4.8,8.8
		C94.4,281.7,94.1,283,94,284.4z"/>
	<path class="st23" d="M78.5,272c1,6.1,0.6,12-2,17.7c-1.6,3.5-4.1,6.1-7.1,8.4c-1.7,0-3.4,0-5.1,0c-1.8-1.4-3.5-2.9-4.8-4.8
		c1.4-0.6,2.5-1.7,3.3-3c2.5-3.8,3.6-8,3.8-12.4c0.9-0.3,1.9,0,2.7-0.4c0.9-0.1,1.6-0.4,2.3-0.8C74.2,275.5,76.5,273.9,78.5,272z"/>
	<path class="st25" d="M59.5,293.3c1.3,1.9,3,3.3,4.8,4.8c-2.7,0-5.4,0-8,0c-0.1-1.1,0.1-2.2-0.2-3.3c-0.3-0.9-0.9-1.4-1.8-1.4
		c-0.9,0-1.5,0.4-1.8,1.3c-0.3,0.7-0.1,1.4-0.2,2.1c-2.4-0.9-4.5-2.3-6.6-3.7c0.1-0.3,0.1-0.7,0.2-1c0.8-2.9,2.9-5.6,6.9-5.4
		c1.2,0,2.2,0.3,3.4,0.5c0.1,0.3,0.3,0.7,0.4,1C57.3,290,58.1,291.8,59.5,293.3z"/>
	<path class="st26" d="M52.2,296.8c0.1-0.7-0.1-1.4,0.2-2.1c0.4-0.8,1-1.3,1.8-1.3c0.9,0,1.6,0.5,1.8,1.4c0.3,1.1,0.1,2.2,0.2,3.3
		c-0.2,4.3-0.1,8.5-0.1,12.8c0,1.8-0.4,2.2-2.1,2.5c-1.4-0.5-1.8-1-1.8-2.5c0-4.2,0-8.5,0-12.7C52.2,297.7,52.2,297.2,52.2,296.8z"
		/>
	<path class="st26" d="M77.4,298.1c0-0.9,0-1.8,0-2.7c0.1-1.2,1-2.1,2-2c1.1,0,1.8,0.9,1.8,2.1c0,0.5,0.1,0.9,0.1,1.4
		c0,4.2-0.1,8.5-0.1,12.7c0,0.6,0,1.2,0,1.8c0,1.2-0.7,2-1.9,2c-1.1,0-1.9-0.7-2-1.9c0-0.5,0-1.1,0-1.6
		C77.4,305.9,77.4,302,77.4,298.1z"/>
	<path class="st27" d="M56.1,287.1c-1.1-0.1-2.2-0.5-3.4-0.5c-4.1-0.1-6.1,2.5-6.9,5.4c-0.1,0.3-0.1,0.7-0.2,1c-0.1,0-0.2,0-0.3,0
		c-1-1.1-2-2.1-3-3.2c-1.3-1.6-2-3.5-2.7-5.4c-0.3-2.2-0.4-4.3,0-6.5c0.7-3.4,2.8-5.7,5.8-7.2c2.1-1.1,4.3-2,6.5-2.8
		c1,1.5,2,2.9,3.2,4.2c0,0.2,0,0.4,0,0.6c-0.5,2.8-0.5,5.6-0.3,8.5C55.1,283.2,55.6,285.1,56.1,287.1z"/>
	<path class="st17" d="M55.2,272c-1.2-1.3-2.2-2.7-3.2-4.2c-1.5-2.9-2.6-6-3.1-9.4c-0.1-0.4-0.1-0.9-0.1-1.4c1.1,2,2.5,3.8,4.7,4.9
		c0.7,0.4,1,0.4,1.2-0.5c0.8-3,2.4-5.3,5.6-6.2c0,0.3,0,0.6-0.1,0.9c-0.7,2-0.2,3.7,1.2,5.3c-1.3,0.7-2.5,1.6-3.5,2.7
		c-0.2,0.3-0.5,0.5-0.3,0.9c0.9,2.3,4.7,5.2,7.3,3.6c0,0.4,0,0.8-0.1,1.2c-0.4,2.1,0.2,3.8,1.6,5.4c0.9,1,2,1.5,3.1,2.2
		c-0.9,0.4-1.8,0.1-2.7,0.4c-2.2-0.2-4.1-0.8-6-1.9C58.6,274.9,56.8,273.5,55.2,272z"/>
	<path class="st28" d="M61.3,261.4c-1.4-1.5-1.9-3.2-1.2-5.3c0.1-0.3,0.1-0.6,0.1-0.9c0.1-0.1,0.1-0.1,0.2-0.2
		c1.4-0.2,2.7-0.7,4.1-1.1c0.9-0.2,1.7-0.3,2.3,0.5c0.3,0.4,0.4,0.3,0.7,0c0.6-0.7,1.3-0.7,2.2-0.5c1.2,0.4,2.5,0.8,3.7,1.1
		c3.3,0.8,5.2,3,6.1,6.1c0.3,0.9,0.6,1,1.3,0.5c1.9-1.1,3.1-2.7,4.1-4.6c-0.1,3.6-1.3,6.9-2.9,10.1c-0.1,0.2-0.2,0.4-0.3,0.6
		c-1,1.4-2,2.9-3.2,4.2c-2,1.9-4.3,3.5-6.8,4.7c-0.7,0.4-1.5,0.7-2.3,0.8c-1.1-0.7-2.2-1.2-3.1-2.2c-1.4-1.6-2-3.3-1.6-5.4
		c0.1-0.4,0.1-0.8,0.1-1.2c0-0.1,0-0.1,0-0.2c0.8-0.3,1.2-1,1.4-1.8c0.1-0.5,0.2-1,0.9-1c0.7,0,0.7,0.6,0.8,1c0.6,1.8,2.2,2.9,4,2.4
		c2-0.5,3.5-1.7,4.4-3.7c0.3-0.7,0.1-1.1-0.3-1.6c-1.6-1.6-3.4-2.7-5.6-3.1c-1.4-0.3-2.3-1-2.8-2.2c-0.1-0.2-0.1-0.6-0.5-0.5
		c-1.1,2.1-1.2,2.2-3.6,2.9c-0.6,0.2-1.3,0.3-1.8,0.7C61.5,261.5,61.4,261.5,61.3,261.4z"/>
	<path class="st24" d="M55.2,272c1.7,1.5,3.5,2.8,5.4,4c1.9,1.1,3.9,1.7,6,1.9c-0.2,4.5-1.3,8.7-3.8,12.4c-0.9,1.3-1.9,2.4-3.3,3
		c-1.4-1.5-2.2-3.3-3-5.2c-0.1-0.3-0.3-0.7-0.4-1c-0.4-2-1-4-1.2-6c-0.3-2.9-0.3-5.7,0.3-8.5C55.2,272.4,55.2,272.2,55.2,272z"/>
	<path class="st23" d="M64.8,268.4c0,0.1,0,0.1,0,0.2c-2.6,1.6-6.4-1.2-7.3-3.6c-0.2-0.4,0.1-0.6,0.3-0.9c1-1.1,2.1-2,3.5-2.7
		c0.1,0,0.1,0,0.2,0C62.5,263.9,63.5,266.2,64.8,268.4z"/>
	<path class="st14" d="M64.8,268.4c-1.3-2.2-2.3-4.6-3.3-7c0.5-0.4,1.2-0.5,1.8-0.7c2.4-0.7,2.5-0.7,3.6-2.9c0.4,0,0.4,0.3,0.5,0.5
		c0.6,1.2,1.5,1.9,2.8,2.2c2.2,0.4,4.1,1.5,5.6,3.1c0.5,0.5,0.6,0.9,0.3,1.6c-0.9,2-2.4,3.2-4.4,3.7c-1.8,0.5-3.4-0.6-4-2.4
		c-0.1-0.5-0.1-1-0.8-1c-0.7,0-0.7,0.6-0.9,1C66,267.4,65.6,268.1,64.8,268.4z"/>
	
		<linearGradient id="SVGID_5_" gradientUnits="userSpaceOnUse" x1="-683.4261" y1="-212.3162" x2="-562.72" y2="-212.3162" gradientTransform="matrix(0.7071 0.7071 -0.7071 0.7071 357.2931 860.1454)">
		<stop  offset="2.924980e-03" style="stop-color:#FAD04F"/>
		<stop  offset="0.1157" style="stop-color:#E5A83F"/>
		<stop  offset="0.2371" style="stop-color:#FDD551"/>
		<stop  offset="0.3921" style="stop-color:#FDD551"/>
		<stop  offset="0.5077" style="stop-color:#F9F09F"/>
		<stop  offset="0.6101" style="stop-color:#FDD551"/>
		<stop  offset="0.7431" style="stop-color:#FDD551"/>
		<stop  offset="0.8835" style="stop-color:#E4A83E"/>
		<stop  offset="1" style="stop-color:#F9CF4E"/>
	</linearGradient>
	<path class="st29" d="M66.8,329.8c-15.5,0-30.9-5.9-42.7-17.6c-23.5-23.5-23.5-61.8,0-85.4c11.4-11.4,26.6-17.7,42.7-17.7
		c16.1,0,31.3,6.3,42.7,17.7c11.4,11.4,17.7,26.6,17.7,42.7c0,16.1-6.3,31.3-17.7,42.7C97.8,323.9,82.3,329.8,66.8,329.8z
		 M66.8,209.7c-16,0-31,6.2-42.2,17.5c-23.3,23.3-23.3,61.2,0,84.5s61.2,23.3,84.5,0c11.3-11.3,17.5-26.3,17.5-42.2
		c0-16-6.2-31-17.5-42.2C97.8,215.9,82.8,209.7,66.8,209.7z"/>
</g>
<g>
	<linearGradient id="SVGID_6_" gradientUnits="userSpaceOnUse" x1="309.5195" y1="266.3974" x2="429.6138" y2="266.3974">
		<stop  offset="2.924980e-03" style="stop-color:#FAD04F"/>
		<stop  offset="0.1157" style="stop-color:#E5A83F"/>
		<stop  offset="0.2371" style="stop-color:#FDD551"/>
		<stop  offset="0.3921" style="stop-color:#FDD551"/>
		<stop  offset="0.5077" style="stop-color:#F9F09F"/>
		<stop  offset="0.6101" style="stop-color:#FDD551"/>
		<stop  offset="0.7431" style="stop-color:#FDD551"/>
		<stop  offset="0.8835" style="stop-color:#E4A83E"/>
		<stop  offset="1" style="stop-color:#F9CF4E"/>
	</linearGradient>
	<circle class="st30" cx="369.6" cy="266.4" r="60"/>
	<path class="st31" d="M371.4,205.3c0.4,0.4,1,0.3,1.4,0.5c2.6,1,4.4,2.8,5.6,5.2c0.5,1.4,0.7,2.8,0.6,4.2c-2.8-1.9-6-3-9.4-3
		c-0.8-1.2-1.6-2.4-1.4-4.1c0.1-1.1,1-1.9,1.2-2.9C370,205.3,370.7,205.3,371.4,205.3z"/>
	<path class="st32" d="M369.3,205.3c-0.2,1.1-1,1.8-1.2,2.9c-0.2,1.6,0.6,2.8,1.4,4.1c-3.3,0.1-6.4,1.1-9.1,3
		c-0.2-1.5,0.1-2.9,0.6-4.3c1.4-2.9,3.6-4.9,6.8-5.5c0,0,0.1-0.1,0.1-0.2C368.4,205.3,368.9,205.3,369.3,205.3z"/>
	<path class="st33" d="M415.4,298.7c-2.2,3.3-4.9,6.3-7.8,9c-0.9-3.6-2.9-6.4-6-8.4c-0.7-0.5-1.4-0.7-2.2-0.3c-0.8,0.4-1.2,1-1.2,2
		c0,4.2,0,8.3,0,12.5c0,0.4-0.1,0.8,0.2,1.1c-18.5,10.5-37.2,10.8-56.1,0.9c0.4-0.3,0.2-0.8,0.2-1.2c0.1-3.2-0.2-6.4,0.2-9.6
		c0.4-2.7,1.4-5,3.2-7c3.5-4,8.1-6,13.1-7.4c2-0.6,4-0.9,5.9-1.4c0.3,0,0.6,0,0.9,0c1.9-0.1,3.8,0.3,5.8,0.1
		c2.4-0.2,4.9-0.6,7.3-0.8c0.5,2,0.9,4,1.6,6c1,2.9,2.2,5.6,3.8,8.2c0.4,0.7,0.9,1,1.7,0.8c0.6-0.2,1-0.5,1-1.2
		c0-3.8,0.9-7.4,1.9-11c0.1-0.1,0.1-0.3,0.2-0.4c0.6-2.3,1.2-4.5,1.8-6.8c3.9,1.3,8,2.2,12,3.2C409.2,288.5,413.2,292.6,415.4,298.7
		z"/>
	<path class="st5" d="M315.1,279.7c-0.8-2.4-1-4.9-1.4-7.4c-0.3-2.4-0.3-4.8-0.2-7.2c0.2-11.4,3.7-21.7,10.1-31
		c3.1-4.4,6.7-8.3,10.9-11.6c0.2-0.1,0.4-0.2,0.6-0.4c1.4,0.6,2.2,1.9,3.1,3c2.2,2.7,3.3,5.8,2.5,9.3c-0.9,3.7-1.7,7.4-1.2,11.2
		c0.4,3,0.6,6,1,9c0.4,3.4,0.5,6.7-0.1,10.1c-1.6,8.8-9.8,15.6-18.8,15.6C319.4,280.4,317.3,280,315.1,279.7z"/>
	<path class="st5" d="M404,222.2c2.8,1.9,5.2,4.3,7.5,6.9c6.5,7.3,10.8,15.7,12.9,25.2c1.2,5.5,1.6,11.1,1.1,16.8
		c-0.2,2.9-0.6,5.8-1.4,8.6c-1.5,0.2-3,0.6-4.5,0.7c-4.2,0.3-8.2-0.5-11.8-2.8c-4.6-2.8-7.7-6.8-8.9-12.1c-0.6-2.6-0.8-5.2-0.5-7.9
		c0.3-2.9,0.6-5.8,0.9-8.7c0.3-2.2,0.5-4.4,0.5-6.6c-0.1-2.3-0.4-4.5-1.1-6.7c-0.6-1.7-0.6-3.5-0.3-5.3
		C399.1,226.9,401.1,224.3,404,222.2z"/>
	<path class="st6" d="M315.1,279.7c2.2,0.2,4.3,0.7,6.5,0.7c9-0.1,17.2-6.8,18.8-15.6c0.6-3.3,0.5-6.7,0.1-10.1c-0.4-3-0.6-6-1-9
		c-0.5-3.8,0.3-7.5,1.2-11.2c0.8-3.5-0.3-6.6-2.5-9.3c-0.9-1.1-1.8-2.3-3.1-3c5.6-4.4,11.8-7.6,18.6-9.6c2.4-0.7,4.8-1.3,7.3-1.6
		c-0.5,1.4-0.8,2.8-0.6,4.3c-0.3,0.3-0.7,0.6-1,1c-0.4,0.5-1,0.8-1.6,1.1c-4.5,2.7-7.4,6.6-8.7,11.7c-1,4.3-0.4,8.7-0.5,13.1
		c-1.7,0.1-2.6,1.1-2.7,2.7c-0.1,1.4,0.2,2.7,0.7,4c0.4,1,0.7,2,0.9,3c0.4,2.1,1.5,3.1,3.7,3.1c0.1,0.1,0.1,0.3,0.2,0.4
		c1.6,6.5,3.7,12.7,8.5,17.6c-0.4-0.1-0.8-0.1-1.2-0.2c-2.4-0.5-3-0.3-4.2,1.8c-1,1.6-2,3.3-3,4.8c-0.7,1.1-1.4,2.3-1.4,3.7
		c-0.7,0.2-1.4,0.5-2,0.7c-3.5,1.2-7,2.1-10.6,2.8c-6.8,1.4-11.4,5.5-13.7,12C319.6,292.9,316.7,286.6,315.1,279.7z"/>
	<path class="st6" d="M404,222.2c-2.9,2.1-4.9,4.7-5.7,8.2c-0.4,1.8-0.3,3.6,0.3,5.3c0.8,2.2,1.1,4.4,1.1,6.7
		c0.1,2.2-0.2,4.4-0.5,6.6c-0.3,2.9-0.7,5.8-0.9,8.7c-0.2,2.7,0,5.3,0.5,7.9c1.2,5.3,4.3,9.2,8.9,12.1c3.6,2.2,7.6,3,11.8,2.8
		c1.5-0.1,3-0.4,4.5-0.7c-1.6,6.9-4.5,13.2-8.6,19c-2.2-6.1-6.2-10.2-12.5-11.7c-4-1-8.1-1.9-12-3.2c0.2-2.5,0.5-5,0.2-7.5
		c-0.3-2.4-0.7-4.9-1.6-7.2c-0.5-2.1-0.9-4.2-1.4-6.2c-0.3-1.5-0.2-3-0.8-4.4c0.3-1.1,0.3-2.4,0.9-3.4c1.5,0.1,2.8-0.6,3.2-1.9
		c0.7-2.3,1.6-4.6,2.1-7c0.3-1.7-0.7-4-2.8-3.9c0-2.9,0.1-5.9,0-8.8c-0.2-5.9-2.6-10.8-7.2-14.5c-1.2-0.9-2.4-1.7-3.7-2.5
		c-0.1-0.5-0.6-0.6-0.9-1c0.2-1.5-0.1-2.8-0.6-4.2C387.9,212.5,396.4,216.2,404,222.2z"/>
	<path class="st34" d="M323.7,298.7c2.4-6.5,6.9-10.6,13.7-12c3.6-0.7,7.1-1.7,10.6-2.8c0.7-0.2,1.4-0.5,2-0.7
		c0.5,0.5,0.9,1.2,1.6,1.6c2.7,1.4,5.6,2.5,8.6,3.2c1.6,0.4,3.2,0.6,4.7,0.9c-2,0.5-4,0.8-5.9,1.4c-5,1.4-9.6,3.5-13.1,7.4
		c-1.8,2-2.9,4.3-3.2,7c-0.4,3.2-0.1,6.4-0.2,9.6c0,0.4,0.2,0.8-0.2,1.2C334.8,311.2,328.6,305.7,323.7,298.7z"/>
	<path class="st34" d="M398.4,314.5c-0.4-0.3-0.2-0.7-0.2-1.1c0-4.2,0-8.3,0-12.5c0-1,0.4-1.6,1.2-2c0.8-0.4,1.5-0.2,2.2,0.3
		c3.1,2.1,5.1,4.8,6,8.4C404.8,310.3,401.7,312.6,398.4,314.5z"/>
	<path class="st35" d="M379,215.3c0.3,0.4,0.8,0.5,0.9,1c-0.2,0-0.5,0-0.7-0.1c-3.2-1.4-6.5-1.8-9.9-1.9c-2.2,0-4.4,0.4-6.6,0.9
		c-1.1,0.3-2.1,1-3.3,1c0.3-0.3,0.7-0.6,1-1c2.8-1.9,5.8-2.9,9.1-3C373,212.3,376.1,213.4,379,215.3z"/>
	<path class="st32" d="M387.4,258.4c0.5,1.4,0.4,3,0.8,4.4c0.5,2.1,0.9,4.2,1.4,6.2c0,0.5-0.5,0.6-0.8,0.8c-2.3,1.4-4.3,3.3-4.9,6
		c-0.8,3.8-0.3,7.6,1,11.3c0.7,1.9,1.8,3.4,4.1,3.7c-1,3.6-1.8,7.2-1.9,11c0,0.7-0.4,1-1,1.2c-0.8,0.2-1.3-0.2-1.7-0.8
		c-1.5-2.6-2.8-5.3-3.8-8.2c-0.7-2-1.1-4-1.6-6c-0.8-4.8-0.8-9.6-0.1-14.5c3.3-3.2,5.4-7.2,7.1-11.4
		C386.5,261,386.7,259.6,387.4,258.4z"/>
	<path class="st36" d="M365,288.9c-1.6-0.3-3.2-0.6-4.7-0.9c-3-0.7-5.9-1.8-8.6-3.2c-0.7-0.4-1.1-1-1.6-1.6c0-1.4,0.6-2.5,1.4-3.7
		c1-1.6,2-3.2,3-4.8c1.3-2.1,1.9-2.3,4.2-1.8c0.4,0.1,0.8,0.2,1.2,0.2c2.5,2.3,5.2,4.1,8.5,5.1c-0.1,0.1-0.2,0.3-0.4,0.4
		c-2.3,1.3-3.3,3.3-3.3,5.8c0,1.6,0.7,3,1.1,4.5C365.6,288.9,365.3,288.9,365,288.9z"/>
	<path class="st37" d="M365.9,288.8c-0.5-1.5-1.2-2.9-1.1-4.5c0-2.6,1-4.5,3.3-5.8c0.2-0.1,0.3-0.3,0.4-0.4c2.3,0.2,4.4-0.3,6.2-1.6
		c1.6-0.6,2.8-1.9,4.3-2.8c-0.8,4.8-0.7,9.7,0.1,14.5c-2.4,0.2-4.9,0.6-7.3,0.8C369.7,289.1,367.8,288.8,365.9,288.8z"/>
	<path class="st38" d="M388.9,290.9c-2.2-0.3-3.4-1.8-4.1-3.7c-1.3-3.7-1.7-7.5-1-11.3c0.5-2.7,2.6-4.6,4.9-6
		c0.3-0.2,0.8-0.3,0.8-0.8c0.9,2.3,1.3,4.7,1.6,7.2c0.3,2.5-0.1,5-0.2,7.5c-0.6,2.3-1.2,4.5-1.8,6.8
		C389,290.7,388.9,290.8,388.9,290.9z"/>
	<path class="st11" d="M374.6,276.5c-1.9,1.3-4,1.8-6.2,1.6c-3.3-0.9-6-2.8-8.5-5.1c-4.8-5-6.9-11.2-8.5-17.6c0-0.1-0.1-0.3-0.2-0.4
		c-0.6-2.9-0.4-5.9-0.4-8.8c0-1.2,0.2-2.4,0.7-3.5c0.1-0.5,0.3-1,0.6-1.3c1-1.1,1.1-2.4,1.2-3.8c0.1-0.6,0.2-1.3,0.3-1.9
		c1-5.8,4.7-8.6,10.5-8c1.2,0.1,2.5,0.5,3.7,0.7c0,0.1,0,0.1,0,0.2c-2.6,1.8-3.9,4.4-4.4,7.4c-0.4,2.2-0.4,4.5-1.9,6.3
		c-0.3,0.3-0.4,0.9-0.5,1.4c-0.7,3.7-0.7,7.4,0.1,11.1c1,5,2.7,9.8,5.4,14.2C368.4,272.1,371.1,274.8,374.6,276.5z"/>
	<path class="st9" d="M367.7,228.2c-1.2-0.2-2.4-0.6-3.7-0.7c-5.8-0.5-9.4,2.3-10.5,8c-0.1,0.6-0.2,1.3-0.3,1.9
		c-0.1,1.4-0.2,2.7-1.2,3.8c-0.3,0.3-0.5,0.8-0.6,1.3c-0.9,0-1.8-0.7-2.8-0.5c0-4.4-0.5-8.8,0.5-13.1c1.2-5.1,4.2-9,8.7-11.7
		c0.6-0.3,1.1-0.6,1.6-1.1c1.2,0,2.2-0.7,3.3-1c2.2-0.6,4.3-0.9,6.6-0.9c-0.1,0.5-0.5,0.9-0.8,1.3
		C365.2,219.2,364.4,224,367.7,228.2z"/>
	<path class="st39" d="M348.7,242.1c1-0.2,1.8,0.5,2.8,0.5c-0.5,1.1-0.7,2.3-0.7,3.5c0,2.9-0.2,5.9,0.4,8.8c-2.2-0.1-3.3-1-3.7-3.1
		c-0.2-1-0.5-2.1-0.9-3c-0.6-1.3-0.8-2.6-0.7-4C346.1,243.2,347,242.2,348.7,242.1z"/>
	<path class="st14" d="M374.6,276.5c-3.5-1.7-6.2-4.4-8.2-7.8c-2.6-4.4-4.4-9.2-5.4-14.2c-0.7-3.7-0.8-7.4-0.1-11.1
		c0.1-0.5,0.2-1,0.5-1.4c1.6-1.8,1.6-4.1,1.9-6.3c0.5-3,1.8-5.6,4.4-7.4c1.4,0.6,2.8,0.5,4.2-0.1c0.5-0.2,1.1-0.4,1.6-0.5
		c3.3-0.7,6.5-0.8,9.2,1.6c2.1,1.9,2.9,4.6,3.4,7.3c0.2,1.2-0.1,2.6,0.7,3.6c0.6,0.7,1,1.5,1.3,2.4c0.4,2.2,0.8,4.3,0.6,6.5
		c-0.1,1.9-0.3,3.8-0.5,5.6c-0.6,1.1-0.6,2.3-0.9,3.4c-0.7,1.2-1,2.6-1.5,3.9c-1.7,4.2-3.7,8.2-7.1,11.4
		C377.5,274.7,376.3,275.9,374.6,276.5z"/>
	<path class="st31" d="M388.1,242.8c-0.4-0.8-0.8-1.6-1.3-2.4c-0.8-1.1-0.5-2.4-0.7-3.6c-0.5-2.8-1.2-5.4-3.4-7.3
		c-2.7-2.4-5.9-2.3-9.2-1.6c-0.6,0.1-1.1,0.2-1.6,0.5c-1.4,0.6-2.8,0.7-4.2,0.1c0-0.1,0-0.1,0-0.2c-3.4-4.2-2.5-9,0.8-12.6
		c0.4-0.4,0.7-0.8,0.8-1.3c3.4,0.1,6.7,0.5,9.9,1.9c0.2,0.1,0.4,0,0.7,0.1c1.2,0.8,2.5,1.6,3.7,2.5c4.7,3.7,7,8.6,7.2,14.5
		c0.1,2.9,0,5.9,0,8.8C389.8,242.1,389,242.4,388.1,242.8z"/>
	<path class="st11" d="M388.1,242.8c0.8-0.4,1.7-0.7,2.6-0.7c2.1-0.1,3.1,2.2,2.8,3.9c-0.5,2.4-1.4,4.6-2.1,7
		c-0.4,1.4-1.7,2-3.2,1.9c0.2-1.9,0.4-3.8,0.5-5.6C388.9,247.1,388.6,244.9,388.1,242.8z"/>
	
		<linearGradient id="SVGID_7_" gradientUnits="userSpaceOnUse" x1="-124.3955" y1="-572.3834" x2="-3.6894" y2="-572.3834" gradientTransform="matrix(0.7071 0.7071 -0.7071 0.7071 10.1153 716.4184)">
		<stop  offset="2.924980e-03" style="stop-color:#FAD04F"/>
		<stop  offset="0.1157" style="stop-color:#E5A83F"/>
		<stop  offset="0.2371" style="stop-color:#FDD551"/>
		<stop  offset="0.3921" style="stop-color:#FDD551"/>
		<stop  offset="0.5077" style="stop-color:#F9F09F"/>
		<stop  offset="0.6101" style="stop-color:#FDD551"/>
		<stop  offset="0.7431" style="stop-color:#FDD551"/>
		<stop  offset="0.8835" style="stop-color:#E4A83E"/>
		<stop  offset="1" style="stop-color:#F9CF4E"/>
	</linearGradient>
	<path class="st40" d="M369.6,326.8c-16.1,0-31.3-6.3-42.7-17.7c-11.4-11.4-17.7-26.6-17.7-42.7s6.3-31.3,17.7-42.7
		c11.4-11.4,26.6-17.7,42.7-17.7c16.1,0,31.3,6.3,42.7,17.7c11.4,11.4,17.7,26.6,17.7,42.7c0,16.1-6.3,31.3-17.7,42.7l0,0
		C400.8,320.5,385.7,326.8,369.6,326.8z M369.6,206.7c-16,0-31,6.2-42.2,17.5s-17.5,26.3-17.5,42.2s6.2,31,17.5,42.2
		c11.3,11.3,26.3,17.5,42.2,17.5c16,0,31-6.2,42.2-17.5c11.3-11.3,17.5-26.3,17.5-42.2s-6.2-31-17.5-42.2
		C400.5,212.9,385.5,206.7,369.6,206.7z"/>
</g>
<linearGradient id="SVGID_8_" gradientUnits="userSpaceOnUse" x1="27.88" y1="314.9814" x2="105.8365" y2="392.9378">
	<stop  offset="2.924980e-03" style="stop-color:#FAD04F"/>
	<stop  offset="0.1274" style="stop-color:#FAEB91"/>
	<stop  offset="0.2079" style="stop-color:#FDD551"/>
	<stop  offset="0.3921" style="stop-color:#FDD551"/>
	<stop  offset="0.5077" style="stop-color:#F9F09F"/>
	<stop  offset="0.6101" style="stop-color:#FDD551"/>
	<stop  offset="0.7431" style="stop-color:#FDD551"/>
	<stop  offset="0.8835" style="stop-color:#E4A83E"/>
	<stop  offset="1" style="stop-color:#F9CF4E"/>
</linearGradient>
<path class="st41" d="M88.9,339.2H4.5c-1.1,0-2,0.9-2,2v25.6c0,1.1,0.9,2,2,2h49h75.8c1.1,0,2-0.9,2-2v-25.6c0-1.1-0.9-2-2-2H88.9z"
	/>
<path class="st42" d="M34.5,367.7c-0.5,0-1-0.4-1-1v-25.6c0-0.5,0.4-1,1-1h94.7c0.5,0,1,0.4,1,1v25.6c0,0.5-0.4,1-1,1H34.5z"/>
<text transform="matrix(1 0 0 1 7.6899 358.1809)" class="st43 st44">10%</text>
<linearGradient id="SVGID_9_" gradientUnits="userSpaceOnUse" x1="315.347" y1="140.318" x2="340.9518" y2="165.9228">
	<stop  offset="2.924980e-03" style="stop-color:#FAD04F"/>
	<stop  offset="0.1157" style="stop-color:#E5A83F"/>
	<stop  offset="0.2371" style="stop-color:#FDD551"/>
	<stop  offset="0.3921" style="stop-color:#FDD551"/>
	<stop  offset="0.5077" style="stop-color:#F9F09F"/>
	<stop  offset="0.6101" style="stop-color:#FDD551"/>
	<stop  offset="0.7431" style="stop-color:#FDD551"/>
	<stop  offset="0.8835" style="stop-color:#E4A83E"/>
	<stop  offset="1" style="stop-color:#F9CF4E"/>
</linearGradient>
<path class="st45" d="M310.7,160.6V151h-3.2v-2.8c1.4,0,2.4-0.2,2.9-0.6s0.8-1.1,0.8-2.1h3.1v15.1H310.7z M328.3,158.9
	c-1.1,1.4-2.6,2-4.7,2s-3.6-0.7-4.7-2c-1.1-1.4-1.6-3.3-1.6-5.9c0-2.6,0.5-4.5,1.6-5.9c1.1-1.4,2.6-2,4.7-2s3.6,0.7,4.7,2
	c1.1,1.4,1.6,3.3,1.6,5.9C329.9,155.6,329.3,157.6,328.3,158.9z M323.5,158.1c1.9,0,2.9-1.7,2.9-5c0-3.3-1-5-2.9-5s-2.9,1.7-2.9,5
	c0,1.7,0.2,3,0.7,3.8C321.8,157.6,322.6,158.1,323.5,158.1z M338.2,151.8c-0.7,0.7-1.7,1.1-3,1.1s-2.2-0.4-3-1.1
	c-0.7-0.7-1.1-1.6-1.1-2.7c0-1.1,0.4-1.9,1.1-2.7s1.7-1.1,3-1.1s2.2,0.4,3,1.1s1.1,1.6,1.1,2.7C339.3,150.2,338.9,151.1,338.2,151.8
	z M334,150.3c0.3,0.3,0.7,0.5,1.2,0.5c0.5,0,1-0.2,1.2-0.5c0.3-0.3,0.4-0.7,0.4-1.2c0-0.5-0.1-0.9-0.4-1.3c-0.3-0.3-0.7-0.5-1.2-0.5
	c-0.5,0-1,0.2-1.2,0.5c-0.3,0.3-0.4,0.8-0.4,1.3C333.5,149.6,333.7,150,334,150.3z M335.3,161.1l-1.7-1l10.6-15.2l1.7,1L335.3,161.1
	z M347.2,159.7c-0.7,0.7-1.7,1.1-3,1.1s-2.2-0.4-3-1.1c-0.7-0.7-1.1-1.6-1.1-2.7s0.4-1.9,1.1-2.7c0.7-0.7,1.7-1.1,3-1.1
	s2.2,0.4,3,1.1c0.7,0.7,1.1,1.6,1.1,2.7S347.9,158.9,347.2,159.7z M343,158.2c0.3,0.3,0.7,0.5,1.2,0.5s1-0.2,1.2-0.5
	c0.3-0.3,0.4-0.7,0.4-1.2s-0.1-0.9-0.4-1.3c-0.3-0.3-0.7-0.5-1.2-0.5s-1,0.2-1.2,0.5c-0.3,0.3-0.4,0.8-0.4,1.3
	S342.7,157.9,343,158.2z"/>
<text transform="matrix(1 0 0 1 38.7891 358.1809)" class="st46 st43 st44">Referral Income</text>
<linearGradient id="SVGID_10_" gradientUnits="userSpaceOnUse" x1="319.3384" y1="303.7314" x2="419.7949" y2="404.1878">
	<stop  offset="2.924980e-03" style="stop-color:#FAD04F"/>
	<stop  offset="0.1274" style="stop-color:#FAEB91"/>
	<stop  offset="0.2079" style="stop-color:#FDD551"/>
	<stop  offset="0.3921" style="stop-color:#FDD551"/>
	<stop  offset="0.5077" style="stop-color:#F9F09F"/>
	<stop  offset="0.6101" style="stop-color:#FDD551"/>
	<stop  offset="0.7431" style="stop-color:#FDD551"/>
	<stop  offset="0.8835" style="stop-color:#E4A83E"/>
	<stop  offset="1" style="stop-color:#F9CF4E"/>
</linearGradient>
<path class="st47" d="M369.1,339.2h-84.4c-1.1,0-2,0.9-2,2v25.6c0,1.1,0.9,2,2,2h49h120.8c1.1,0,2-0.9,2-2v-25.6c0-1.1-0.9-2-2-2
	H369.1z"/>
<path class="st42" d="M314.7,367.7c-0.5,0-1-0.4-1-1v-25.6c0-0.5,0.4-1,1-1h139.7c0.5,0,1,0.4,1,1v25.6c0,0.5-0.4,1-1,1H314.7z"/>
<text transform="matrix(1 0 0 1 287.8983 358.1809)" class="st43 st44">10%</text>
<text transform="matrix(1 0 0 1 318.9975 358.1809)" class="st46 st43 st44">Binary Matching Income</text>
<circle cx="124.3" cy="228.5" r="22.7"/>
<linearGradient id="SVGID_11_" gradientUnits="userSpaceOnUse" x1="105.4293" y1="228.54" x2="143.2467" y2="228.54">
	<stop  offset="2.924980e-03" style="stop-color:#FAD04F"/>
	<stop  offset="0.1157" style="stop-color:#E5A83F"/>
	<stop  offset="0.2371" style="stop-color:#FDD551"/>
	<stop  offset="0.3921" style="stop-color:#FDD551"/>
	<stop  offset="0.5077" style="stop-color:#F9F09F"/>
	<stop  offset="0.6101" style="stop-color:#FDD551"/>
	<stop  offset="0.7431" style="stop-color:#FDD551"/>
	<stop  offset="0.8835" style="stop-color:#E4A83E"/>
	<stop  offset="1" style="stop-color:#F9CF4E"/>
</linearGradient>
<circle class="st48" cx="124.3" cy="228.5" r="18.9"/>
<circle cx="311.1" cy="228.5" r="22.7"/>
<linearGradient id="SVGID_12_" gradientUnits="userSpaceOnUse" x1="292.2302" y1="228.54" x2="330.0476" y2="228.54">
	<stop  offset="2.924980e-03" style="stop-color:#FAD04F"/>
	<stop  offset="0.1157" style="stop-color:#E5A83F"/>
	<stop  offset="0.2371" style="stop-color:#FDD551"/>
	<stop  offset="0.3921" style="stop-color:#FDD551"/>
	<stop  offset="0.5077" style="stop-color:#F9F09F"/>
	<stop  offset="0.6101" style="stop-color:#FDD551"/>
	<stop  offset="0.7431" style="stop-color:#FDD551"/>
	<stop  offset="0.8835" style="stop-color:#E4A83E"/>
	<stop  offset="1" style="stop-color:#F9CF4E"/>
</linearGradient>
<circle class="st49" cx="311.1" cy="228.5" r="18.9"/>
<text transform="matrix(1 0 0 1 214.3005 136.3538)" class="st43 st50">U</text>
<text transform="matrix(1 0 0 1 117.2262 235.1623)" class="st43 st50">A</text>
<text transform="matrix(1 0 0 1 304.0406 235.162)" class="st43 st50">B</text>
<g>
	<g>
		<g>
			<linearGradient id="SVGID_13_" gradientUnits="userSpaceOnUse" x1="58.6722" y1="143.8475" x2="151.7629" y2="143.8475">
				<stop  offset="2.924980e-03" style="stop-color:#FAD04F"/>
				<stop  offset="0.1157" style="stop-color:#E5A83F"/>
				<stop  offset="0.2371" style="stop-color:#FDD551"/>
				<stop  offset="0.3921" style="stop-color:#FDD551"/>
				<stop  offset="0.5077" style="stop-color:#F9F09F"/>
				<stop  offset="0.6101" style="stop-color:#FDD551"/>
				<stop  offset="0.7431" style="stop-color:#FDD551"/>
				<stop  offset="0.8835" style="stop-color:#E4A83E"/>
				<stop  offset="1" style="stop-color:#F9CF4E"/>
			</linearGradient>
			<path class="st51" d="M61.2,187.4c13.8-44.2,49.2-77.6,90.3-86.4"/>
			<g>
				<linearGradient id="SVGID_14_" gradientUnits="userSpaceOnUse" x1="58.6722" y1="189.0215" x2="151.7629" y2="189.0215">
					<stop  offset="2.924980e-03" style="stop-color:#FAD04F"/>
					<stop  offset="0.1157" style="stop-color:#E5A83F"/>
					<stop  offset="0.2371" style="stop-color:#FDD551"/>
					<stop  offset="0.3921" style="stop-color:#FDD551"/>
					<stop  offset="0.5077" style="stop-color:#F9F09F"/>
					<stop  offset="0.6101" style="stop-color:#FDD551"/>
					<stop  offset="0.7431" style="stop-color:#FDD551"/>
					<stop  offset="0.8835" style="stop-color:#E4A83E"/>
					<stop  offset="1" style="stop-color:#F9CF4E"/>
				</linearGradient>
				<polygon class="st52" points="65.5,187.4 59.6,192.9 57.8,185.1 				"/>
			</g>
		</g>
	</g>
	<g>
		<g>
			<linearGradient id="SVGID_15_" gradientUnits="userSpaceOnUse" x1="387.3278" y1="143.8475" x2="294.2371" y2="143.8475">
				<stop  offset="2.924980e-03" style="stop-color:#FAD04F"/>
				<stop  offset="0.1157" style="stop-color:#E5A83F"/>
				<stop  offset="0.2371" style="stop-color:#FDD551"/>
				<stop  offset="0.3921" style="stop-color:#FDD551"/>
				<stop  offset="0.5077" style="stop-color:#F9F09F"/>
				<stop  offset="0.6101" style="stop-color:#FDD551"/>
				<stop  offset="0.7431" style="stop-color:#FDD551"/>
				<stop  offset="0.8835" style="stop-color:#E4A83E"/>
				<stop  offset="1" style="stop-color:#F9CF4E"/>
			</linearGradient>
			<path class="st53" d="M384.8,187.4c-13.8-44.2-49.2-77.6-90.3-86.4"/>
			<g>
				<linearGradient id="SVGID_16_" gradientUnits="userSpaceOnUse" x1="387.3278" y1="189.0215" x2="294.2371" y2="189.0215">
					<stop  offset="2.924980e-03" style="stop-color:#FAD04F"/>
					<stop  offset="0.1157" style="stop-color:#E5A83F"/>
					<stop  offset="0.2371" style="stop-color:#FDD551"/>
					<stop  offset="0.3921" style="stop-color:#FDD551"/>
					<stop  offset="0.5077" style="stop-color:#F9F09F"/>
					<stop  offset="0.6101" style="stop-color:#FDD551"/>
					<stop  offset="0.7431" style="stop-color:#FDD551"/>
					<stop  offset="0.8835" style="stop-color:#E4A83E"/>
					<stop  offset="1" style="stop-color:#F9CF4E"/>
				</linearGradient>
				<polygon class="st54" points="388.2,185.1 386.4,192.9 380.5,187.4 				"/>
			</g>
		</g>
	</g>
</g>
<g>
	<g>
		<linearGradient id="SVGID_17_" gradientUnits="userSpaceOnUse" x1="271.4033" y1="162.308" x2="336.1802" y2="162.308">
			<stop  offset="2.924980e-03" style="stop-color:#FAD04F"/>
			<stop  offset="0.1157" style="stop-color:#E5A83F"/>
			<stop  offset="0.2371" style="stop-color:#FDD551"/>
			<stop  offset="0.3921" style="stop-color:#FDD551"/>
			<stop  offset="0.5077" style="stop-color:#F9F09F"/>
			<stop  offset="0.6101" style="stop-color:#FDD551"/>
			<stop  offset="0.7431" style="stop-color:#FDD551"/>
			<stop  offset="0.8835" style="stop-color:#E4A83E"/>
			<stop  offset="1" style="stop-color:#F9CF4E"/>
		</linearGradient>
		<path class="st55" d="M274,124.1c10.4,33.6,33.4,60.8,61.8,75.9"/>
		<g>
			<linearGradient id="SVGID_18_" gradientUnits="userSpaceOnUse" x1="271.4033" y1="122.4161" x2="336.1802" y2="122.4161">
				<stop  offset="2.924980e-03" style="stop-color:#FAD04F"/>
				<stop  offset="0.1157" style="stop-color:#E5A83F"/>
				<stop  offset="0.2371" style="stop-color:#FDD551"/>
				<stop  offset="0.3921" style="stop-color:#FDD551"/>
				<stop  offset="0.5077" style="stop-color:#F9F09F"/>
				<stop  offset="0.6101" style="stop-color:#FDD551"/>
				<stop  offset="0.7431" style="stop-color:#FDD551"/>
				<stop  offset="0.8835" style="stop-color:#E4A83E"/>
				<stop  offset="1" style="stop-color:#F9CF4E"/>
			</linearGradient>
			<polygon class="st56" points="270.5,126.3 272.4,118.5 278.1,124 			"/>
		</g>
	</g>
</g>
</svg>
